<svg width="232" height="53" viewBox="0 0 232 53" fill="none" xmlns="http://www.w3.org/2000/svg">
<rect x="81" width="151" height="53" rx="4" fill="#066F14" fill-opacity="0.7"/>
<path d="M114.184 32V20.8H117.864C118.739 20.8 119.459 20.944 120.024 21.232C120.589 21.52 121.005 21.9093 121.272 22.4C121.549 22.8907 121.688 23.4453 121.688 24.064C121.688 24.672 121.555 25.2213 121.288 25.712C121.021 26.2027 120.605 26.5973 120.04 26.896C119.475 27.184 118.749 27.328 117.864 27.328H115.528V32H114.184ZM115.528 26.192H117.832C118.728 26.192 119.363 26.0053 119.736 25.632C120.12 25.248 120.312 24.7253 120.312 24.064C120.312 23.392 120.12 22.8693 119.736 22.496C119.363 22.112 118.728 21.92 117.832 21.92H115.528V26.192ZM123.37 32V20.48H124.714V32H123.37ZM129.557 32.192C128.895 32.192 128.346 32.08 127.909 31.856C127.471 31.632 127.146 31.3333 126.933 30.96C126.719 30.5867 126.613 30.1813 126.613 29.744C126.613 28.9333 126.922 28.3093 127.541 27.872C128.159 27.4347 129.002 27.216 130.069 27.216H132.213V27.12C132.213 26.4267 132.031 25.904 131.669 25.552C131.306 25.1893 130.821 25.008 130.213 25.008C129.69 25.008 129.237 25.1413 128.853 25.408C128.479 25.664 128.245 26.0427 128.149 26.544H126.773C126.826 25.968 127.018 25.4827 127.349 25.088C127.69 24.6933 128.111 24.3947 128.613 24.192C129.114 23.9787 129.647 23.872 130.213 23.872C131.322 23.872 132.154 24.1707 132.709 24.768C133.274 25.3547 133.557 26.1387 133.557 27.12V32H132.357L132.277 30.576C132.053 31.024 131.722 31.408 131.285 31.728C130.858 32.0373 130.282 32.192 129.557 32.192ZM129.765 31.056C130.277 31.056 130.714 30.9227 131.077 30.656C131.45 30.3893 131.733 30.0427 131.925 29.616C132.117 29.1893 132.213 28.7413 132.213 28.272V28.256H130.181C129.391 28.256 128.831 28.3947 128.501 28.672C128.181 28.9387 128.021 29.2747 128.021 29.68C128.021 30.096 128.17 30.432 128.469 30.688C128.778 30.9333 129.21 31.056 129.765 31.056ZM135.573 32V24.064H136.789L136.869 25.488C137.125 24.9867 137.493 24.592 137.973 24.304C138.453 24.016 138.997 23.872 139.605 23.872C140.543 23.872 141.29 24.16 141.845 24.736C142.41 25.3013 142.693 26.176 142.693 27.36V32H141.349V27.504C141.349 25.8507 140.666 25.024 139.301 25.024C138.618 25.024 138.047 25.2747 137.589 25.776C137.141 26.2667 136.917 26.9707 136.917 27.888V32H135.573ZM147.865 32C147.14 32 146.569 31.824 146.153 31.472C145.737 31.12 145.529 30.4853 145.529 29.568V25.2H144.153V24.064H145.529L145.705 22.16H146.873V24.064H149.209V25.2H146.873V29.568C146.873 30.0693 146.974 30.4107 147.177 30.592C147.38 30.7627 147.737 30.848 148.249 30.848H149.081V32H147.865ZM155.231 32V20.8H156.799L160.831 28.608L164.831 20.8H166.415V32H165.071V23.2L161.327 30.4H160.319L156.575 23.216V32H155.231ZM172.266 32.192C171.508 32.192 170.836 32.0213 170.25 31.68C169.663 31.328 169.199 30.8427 168.858 30.224C168.527 29.6053 168.362 28.8747 168.362 28.032C168.362 27.2 168.527 26.4747 168.858 25.856C169.188 25.2267 169.647 24.7413 170.234 24.4C170.831 24.048 171.519 23.872 172.298 23.872C173.066 23.872 173.727 24.048 174.282 24.4C174.847 24.7413 175.279 25.1947 175.578 25.76C175.876 26.3253 176.026 26.9333 176.026 27.584C176.026 27.7013 176.02 27.8187 176.01 27.936C176.01 28.0533 176.01 28.1867 176.01 28.336H169.69C169.722 28.944 169.86 29.4507 170.106 29.856C170.362 30.2507 170.676 30.5493 171.05 30.752C171.434 30.9547 171.839 31.056 172.266 31.056C172.82 31.056 173.284 30.928 173.658 30.672C174.031 30.416 174.303 30.0693 174.474 29.632H175.802C175.588 30.368 175.178 30.9813 174.57 31.472C173.972 31.952 173.204 32.192 172.266 32.192ZM172.266 25.008C171.626 25.008 171.055 25.2053 170.554 25.6C170.063 25.984 169.78 26.5493 169.706 27.296H174.698C174.666 26.5813 174.42 26.0213 173.962 25.616C173.503 25.2107 172.938 25.008 172.266 25.008ZM181.407 32.192C180.618 32.192 179.924 32.0107 179.327 31.648C178.74 31.2853 178.282 30.7893 177.951 30.16C177.631 29.5307 177.471 28.816 177.471 28.016C177.471 27.216 177.636 26.5067 177.967 25.888C178.298 25.2587 178.756 24.768 179.343 24.416C179.93 24.0533 180.623 23.872 181.423 23.872C182.074 23.872 182.65 24.0053 183.151 24.272C183.652 24.5387 184.042 24.912 184.319 25.392V20.48H185.663V32H184.447L184.319 30.688C184.063 31.072 183.695 31.4187 183.215 31.728C182.735 32.0373 182.132 32.192 181.407 32.192ZM181.551 31.024C182.084 31.024 182.554 30.9013 182.959 30.656C183.375 30.4 183.695 30.048 183.919 29.6C184.154 29.152 184.271 28.6293 184.271 28.032C184.271 27.4347 184.154 26.912 183.919 26.464C183.695 26.016 183.375 25.6693 182.959 25.424C182.554 25.168 182.084 25.04 181.551 25.04C181.028 25.04 180.559 25.168 180.143 25.424C179.738 25.6693 179.418 26.016 179.183 26.464C178.959 26.912 178.847 27.4347 178.847 28.032C178.847 28.6293 178.959 29.152 179.183 29.6C179.418 30.048 179.738 30.4 180.143 30.656C180.559 30.9013 181.028 31.024 181.551 31.024ZM188.67 22.304C188.403 22.304 188.179 22.2187 187.998 22.048C187.827 21.8667 187.742 21.6427 187.742 21.376C187.742 21.12 187.827 20.9067 187.998 20.736C188.179 20.5653 188.403 20.48 188.67 20.48C188.926 20.48 189.145 20.5653 189.326 20.736C189.507 20.9067 189.598 21.12 189.598 21.376C189.598 21.6427 189.507 21.8667 189.326 22.048C189.145 22.2187 188.926 22.304 188.67 22.304ZM187.998 32V24.064H189.342V32H187.998ZM194.322 32.192C193.661 32.192 193.111 32.08 192.674 31.856C192.237 31.632 191.911 31.3333 191.698 30.96C191.485 30.5867 191.378 30.1813 191.378 29.744C191.378 28.9333 191.687 28.3093 192.306 27.872C192.925 27.4347 193.767 27.216 194.834 27.216H196.978V27.12C196.978 26.4267 196.797 25.904 196.434 25.552C196.071 25.1893 195.586 25.008 194.978 25.008C194.455 25.008 194.002 25.1413 193.618 25.408C193.245 25.664 193.01 26.0427 192.914 26.544H191.538C191.591 25.968 191.783 25.4827 192.114 25.088C192.455 24.6933 192.877 24.3947 193.378 24.192C193.879 23.9787 194.413 23.872 194.978 23.872C196.087 23.872 196.919 24.1707 197.474 24.768C198.039 25.3547 198.322 26.1387 198.322 27.12V32H197.122L197.042 30.576C196.818 31.024 196.487 31.408 196.05 31.728C195.623 32.0373 195.047 32.192 194.322 32.192ZM194.53 31.056C195.042 31.056 195.479 30.9227 195.842 30.656C196.215 30.3893 196.498 30.0427 196.69 29.616C196.882 29.1893 196.978 28.7413 196.978 28.272V28.256H194.946C194.157 28.256 193.597 28.3947 193.266 28.672C192.946 28.9387 192.786 29.2747 192.786 29.68C192.786 30.096 192.935 30.432 193.234 30.688C193.543 30.9333 193.975 31.056 194.53 31.056Z" fill="white"/>
<path d="M81 24H9V28H81V24Z" fill="#135D1D"/>
<circle r="8" transform="matrix(-1 0 0 1 8 26)" fill="white" fill-opacity="0.31"/>
<circle cx="8" cy="26" r="3" fill="#F4C300"/>
</svg>
